<svg xmlns="http://www.w3.org/2000/svg" viewBox="0 0 1601.1796 305.03101"><path fill="#82b541" d="M206.06 31.535c-8.048-4.467-31.118-1.705-58.826 6.872-48.493 33.147-89.42 81.98-92.276 160.4-.52 1.875-5.303-.255-6.25-.835-13.094-25.1-18.282-51.528-7.348-89.654 2.038-3.393-4.625-7.57-5.823-6.377-2.4 2.405-12.405 13.063-19.05 24.59-32.938 57.137-11.398 130.35 46.23 162.39 57.614 32.09 130.37 11.39 162.45-46.243 37.112-66.518 2.65-198.99-19.106-211.14z"/><path d="M412.29 63.46c-68.314 0-117.9 50.785-117.9 120.76 0 70.547 49.457 119.82 120.28 119.82 35.773 0 64.095-11.187 86.62-34.214 6.726-7.264 7.45-14.264 7.45-16.94 0-11.407-8.483-19.693-20.17-19.693-5.892 0-10.82 2.225-16.472 7.45-12.754 11.885-29.55 24.025-57.428 24.025-38.766 0-70.293-29.105-72.28-66.48h154.29c16.78 0 24.93-7.845 24.93-23.975 0-4.75 0-8.176-.956-14.937-8.312-59.994-48.817-95.81-108.36-95.81zm0 37.46c37.043 0 60.813 23.607 62.28 61.708H342.44c3.468-35.262 33.282-61.708 69.848-61.708zM668.94 63.46c-31.033 0-61.76 17.843-73.763 42.626V90.77c0-23.727-18.39-24.93-22.072-24.93-10.896 0-22.54 6.55-22.54 24.93v184.99c0 24.64 19.573 25.884 23.495 25.884s23.505-1.245 23.505-25.884v-99.168c0-43.148 24.45-73.285 59.457-73.285 33.906 0 50.394 22.25 50.394 68.033v104.42c0 24.64 19.583 25.884 23.505 25.884s23.497-1.245 23.497-25.884V156.58c0-45.015-22.456-93.107-85.477-93.107zM967.08 65.845c-10.86 0-18.738 6.335-23.428 18.8l-64.304 161.7-63.813-161.7c-4.996-12.652-12.814-18.8-23.906-18.8-12.96 0-23.505 10.11-23.505 22.542 0 3.077.35 7.067 2.95 13.3l73.9 174.49c8.806 21.05 23.29 25.466 33.895 25.466 10.598 0 25.09-4.417 33.915-25.457l74.38-175.46c2.54-6.155 2.934-10.674 2.934-12.813 0-12.575-9.908-22.065-23.02-22.065zM1103.7 63.46c-30.06 0-58.06 8.37-78.826 23.555-7.043 4.86-10.47 10.92-10.47 18.543 0 10.495 8.014 18.722 18.262 18.722 4.433 0 9.395-1.765 13.947-4.954 17.853-11.9 34.63-17.45 52.79-17.45 34.75 0 54.7 17.672 54.7 48.492v5.107c-78.01.085-157.35 9.506-157.35 77.37 0 48.84 41.74 70.71 83.104 70.71 32.943 0 59.253-13.054 76.133-37.77v11.885c0 17.7 11.885 23.975 22.082 23.975 2.147 0 21.108-.674 21.108-23.975V153.22c0-56.217-35.703-89.773-95.484-89.773zm40.514 126.62h9.89v10.826c0 39.6-25.22 65.186-64.23 65.186-10.59 0-45.152-2.464-45.152-34.204 0-37.478 56.78-41.81 99.492-41.81zM1321.6 108.55c20.564 0 21.604-16.002 21.604-19.208 0-9.515-5.678-19.686-21.604-19.686h-42.286V26.884c0-19.106-12.396-25.884-23.02-25.884-3.92 0-23.495 1.245-23.495 25.884v203.11c0 46.873 23.12 71.648 66.873 71.648 11.32 0 22.354-2.004 29.565-5.363 8.27-4.127 13.01-10.913 13.01-18.612 0-10.86-7.877-18.738-18.738-18.738-2.098 0-5.08.52-8.372 1.466-4.024 1.007-6.752 1.398-9.736 1.398-17.8 0-26.088-11.62-26.088-36.574V108.53h42.286zM1477 63.46c-71.086 0-122.66 50.385-122.66 119.8 0 33.795 12.498 64.597 35.176 86.728 22.507 21.953 53.574 34.043 87.488 34.043 70.2 0 123.14-51.92 123.14-120.77 0-69.414-51.8-119.8-123.14-119.8zm0 200.72c-48.748 0-74.24-40.71-74.24-80.926 0-55.262 38.484-80.43 74.24-80.43s74.24 25.168 74.24 80.43c0 55.604-38.484 80.925-74.24 80.925z"/></svg>